<mxfile host="app.diagrams.net" agent="Mozilla/5.0 (Windows NT 10.0; Win64; x64) AppleWebKit/537.36 (KHTML, like Gecko) Chrome/141.0.0.0 Safari/537.36" version="28.2.7">
  <diagram name="Página 1" id="2OuvLvNMKslnhaqlBuOr">
    <mxGraphModel dx="4734" dy="2700" grid="1" gridSize="10" guides="1" tooltips="1" connect="1" arrows="1" fold="1" page="1" pageScale="1" pageWidth="1169" pageHeight="827" math="0" shadow="0">
      <root>
        <mxCell id="0" />
        <mxCell id="1" parent="0" />
        <mxCell id="VHbMXaNaFR9UGbF0lygf-293" value="" style="rounded=0;whiteSpace=wrap;html=1;fontFamily=Helvetica;fontSize=11;fontColor=default;labelBackgroundColor=default;" vertex="1" parent="1">
          <mxGeometry x="-1110" y="-160" width="3200" height="1570" as="geometry" />
        </mxCell>
        <mxCell id="VHbMXaNaFR9UGbF0lygf-106" value="" style="group" vertex="1" connectable="0" parent="1">
          <mxGeometry x="40" y="40" width="940" height="580" as="geometry" />
        </mxCell>
        <mxCell id="VHbMXaNaFR9UGbF0lygf-85" value="" style="rounded=0;whiteSpace=wrap;html=1;" vertex="1" parent="VHbMXaNaFR9UGbF0lygf-106">
          <mxGeometry width="940" height="580" as="geometry" />
        </mxCell>
        <mxCell id="VHbMXaNaFR9UGbF0lygf-47" value="Sistema" style="rounded=0;whiteSpace=wrap;html=1;fontSize=16;" vertex="1" parent="VHbMXaNaFR9UGbF0lygf-106">
          <mxGeometry x="40" y="20" width="180" height="50" as="geometry" />
        </mxCell>
        <mxCell id="VHbMXaNaFR9UGbF0lygf-50" value="Calcular IEA" style="rounded=0;whiteSpace=wrap;html=1;" vertex="1" parent="VHbMXaNaFR9UGbF0lygf-106">
          <mxGeometry x="30" y="180" width="200" height="60" as="geometry" />
        </mxCell>
        <mxCell id="VHbMXaNaFR9UGbF0lygf-51" value="Gerenciar Semestres" style="rounded=0;whiteSpace=wrap;html=1;" vertex="1" parent="VHbMXaNaFR9UGbF0lygf-106">
          <mxGeometry x="35" y="510" width="190" height="50" as="geometry" />
        </mxCell>
        <mxCell id="VHbMXaNaFR9UGbF0lygf-52" value="" style="line;strokeWidth=1;direction=south;html=1;strokeColor=#000000;" vertex="1" parent="VHbMXaNaFR9UGbF0lygf-106">
          <mxGeometry x="250" width="10" height="580" as="geometry" />
        </mxCell>
        <mxCell id="VHbMXaNaFR9UGbF0lygf-53" value="Xº Semestre" style="rounded=0;whiteSpace=wrap;html=1;" vertex="1" parent="VHbMXaNaFR9UGbF0lygf-106">
          <mxGeometry x="280" y="20" width="130" height="30" as="geometry" />
        </mxCell>
        <mxCell id="VHbMXaNaFR9UGbF0lygf-54" value="Minhas Matérias" style="text;html=1;strokeColor=none;fillColor=none;align=left;verticalAlign=middle;whiteSpace=wrap;rounded=0;fontSize=20;" vertex="1" parent="VHbMXaNaFR9UGbF0lygf-106">
          <mxGeometry x="280" y="70" width="190" height="30" as="geometry" />
        </mxCell>
        <mxCell id="VHbMXaNaFR9UGbF0lygf-55" value="lista suspensa" style="text;html=1;strokeColor=none;fillColor=none;align=left;verticalAlign=middle;whiteSpace=wrap;rounded=0;" vertex="1" parent="VHbMXaNaFR9UGbF0lygf-106">
          <mxGeometry x="450" y="20" width="100" height="30" as="geometry" />
        </mxCell>
        <mxCell id="VHbMXaNaFR9UGbF0lygf-56" value="" style="endArrow=classic;html=1;rounded=0;" edge="1" parent="VHbMXaNaFR9UGbF0lygf-106">
          <mxGeometry width="50" height="50" relative="1" as="geometry">
            <mxPoint x="410" y="34.5" as="sourcePoint" />
            <mxPoint x="450" y="34.5" as="targetPoint" />
          </mxGeometry>
        </mxCell>
        <mxCell id="VHbMXaNaFR9UGbF0lygf-57" value="" style="rounded=0;whiteSpace=wrap;html=1;" vertex="1" parent="VHbMXaNaFR9UGbF0lygf-106">
          <mxGeometry x="280" y="150" width="300" height="160" as="geometry" />
        </mxCell>
        <mxCell id="VHbMXaNaFR9UGbF0lygf-58" value="&lt;div style=&quot;text-align: left;&quot;&gt;&lt;span&gt;&lt;b&gt;Matéria 1&lt;/b&gt;&lt;/span&gt;&lt;br&gt;&lt;br&gt;Média Atual: X&lt;br&gt;&lt;br&gt;Faltas Atuais: Y&lt;/div&gt;" style="text;html=1;strokeColor=none;fillColor=none;align=left;verticalAlign=top;whiteSpace=wrap;rounded=0;fontSize=15;" vertex="1" parent="VHbMXaNaFR9UGbF0lygf-57">
          <mxGeometry x="10" y="8" width="250" height="88" as="geometry" />
        </mxCell>
        <mxCell id="VHbMXaNaFR9UGbF0lygf-59" value="Adicionar Nota" style="rounded=0;whiteSpace=wrap;html=1;" vertex="1" parent="VHbMXaNaFR9UGbF0lygf-57">
          <mxGeometry x="10" y="128" width="130" height="24" as="geometry" />
        </mxCell>
        <mxCell id="VHbMXaNaFR9UGbF0lygf-60" value="Adicionar Faltas" style="rounded=0;whiteSpace=wrap;html=1;" vertex="1" parent="VHbMXaNaFR9UGbF0lygf-57">
          <mxGeometry x="160" y="128" width="130" height="24" as="geometry" />
        </mxCell>
        <mxCell id="VHbMXaNaFR9UGbF0lygf-61" value="x" style="rounded=0;whiteSpace=wrap;html=1;fillColor=#f8cecc;strokeColor=#b85450;" vertex="1" parent="VHbMXaNaFR9UGbF0lygf-57">
          <mxGeometry x="270" y="4" width="25" height="20" as="geometry" />
        </mxCell>
        <mxCell id="VHbMXaNaFR9UGbF0lygf-62" value="" style="rounded=0;whiteSpace=wrap;html=1;" vertex="1" parent="VHbMXaNaFR9UGbF0lygf-106">
          <mxGeometry x="610" y="150" width="300" height="160" as="geometry" />
        </mxCell>
        <mxCell id="VHbMXaNaFR9UGbF0lygf-63" value="&lt;div style=&quot;text-align: left;&quot;&gt;&lt;font style=&quot;font-size: 15px;&quot;&gt;&lt;b style=&quot;&quot;&gt;Matéria 2&lt;/b&gt;&lt;br&gt;&lt;br&gt;Média Atual: X&lt;br&gt;&lt;br&gt;Faltas Atuais: Y&lt;/font&gt;&lt;/div&gt;" style="text;html=1;strokeColor=none;fillColor=none;align=left;verticalAlign=top;whiteSpace=wrap;rounded=0;" vertex="1" parent="VHbMXaNaFR9UGbF0lygf-62">
          <mxGeometry x="10" y="8" width="250" height="88" as="geometry" />
        </mxCell>
        <mxCell id="VHbMXaNaFR9UGbF0lygf-64" value="Adicionar Nota" style="rounded=0;whiteSpace=wrap;html=1;" vertex="1" parent="VHbMXaNaFR9UGbF0lygf-62">
          <mxGeometry x="10" y="128" width="130" height="24" as="geometry" />
        </mxCell>
        <mxCell id="VHbMXaNaFR9UGbF0lygf-65" value="Adicionar Faltas" style="rounded=0;whiteSpace=wrap;html=1;" vertex="1" parent="VHbMXaNaFR9UGbF0lygf-62">
          <mxGeometry x="160" y="128" width="130" height="24" as="geometry" />
        </mxCell>
        <mxCell id="VHbMXaNaFR9UGbF0lygf-66" value="x" style="rounded=0;whiteSpace=wrap;html=1;fillColor=#f8cecc;strokeColor=#b85450;" vertex="1" parent="VHbMXaNaFR9UGbF0lygf-62">
          <mxGeometry x="270" y="4" width="25" height="20" as="geometry" />
        </mxCell>
        <mxCell id="VHbMXaNaFR9UGbF0lygf-67" value="" style="rounded=0;whiteSpace=wrap;html=1;" vertex="1" parent="VHbMXaNaFR9UGbF0lygf-106">
          <mxGeometry x="280" y="350" width="300" height="160" as="geometry" />
        </mxCell>
        <mxCell id="VHbMXaNaFR9UGbF0lygf-68" value="&lt;div style=&quot;text-align: left;&quot;&gt;&lt;font style=&quot;font-size: 15px;&quot;&gt;&lt;b style=&quot;&quot;&gt;Matéria 3&lt;/b&gt;&lt;br&gt;&lt;br&gt;Média Atual: X&lt;br&gt;&lt;br&gt;Faltas Atuais: Y&lt;/font&gt;&lt;/div&gt;" style="text;html=1;strokeColor=none;fillColor=none;align=left;verticalAlign=top;whiteSpace=wrap;rounded=0;" vertex="1" parent="VHbMXaNaFR9UGbF0lygf-67">
          <mxGeometry x="10" y="8" width="250" height="88" as="geometry" />
        </mxCell>
        <mxCell id="VHbMXaNaFR9UGbF0lygf-69" value="Adicionar Nota" style="rounded=0;whiteSpace=wrap;html=1;" vertex="1" parent="VHbMXaNaFR9UGbF0lygf-67">
          <mxGeometry x="10" y="128" width="130" height="24" as="geometry" />
        </mxCell>
        <mxCell id="VHbMXaNaFR9UGbF0lygf-70" value="Adicionar Faltas" style="rounded=0;whiteSpace=wrap;html=1;" vertex="1" parent="VHbMXaNaFR9UGbF0lygf-67">
          <mxGeometry x="160" y="128" width="130" height="24" as="geometry" />
        </mxCell>
        <mxCell id="VHbMXaNaFR9UGbF0lygf-71" value="x" style="rounded=0;whiteSpace=wrap;html=1;fillColor=#f8cecc;strokeColor=#b85450;" vertex="1" parent="VHbMXaNaFR9UGbF0lygf-67">
          <mxGeometry x="270" y="4" width="25" height="20" as="geometry" />
        </mxCell>
        <mxCell id="VHbMXaNaFR9UGbF0lygf-72" value="" style="rounded=0;whiteSpace=wrap;html=1;fontStyle=0" vertex="1" parent="VHbMXaNaFR9UGbF0lygf-106">
          <mxGeometry x="610" y="350" width="300" height="160" as="geometry" />
        </mxCell>
        <mxCell id="VHbMXaNaFR9UGbF0lygf-73" value="&lt;div style=&quot;text-align: left;&quot;&gt;&lt;font style=&quot;font-size: 15px;&quot;&gt;&lt;b style=&quot;&quot;&gt;Matéria 4&lt;/b&gt;&lt;br&gt;&lt;br&gt;Média Atual: X&lt;br&gt;&lt;br&gt;Faltas Atuais: Y&lt;/font&gt;&lt;/div&gt;" style="text;html=1;strokeColor=none;fillColor=none;align=left;verticalAlign=top;whiteSpace=wrap;rounded=0;" vertex="1" parent="VHbMXaNaFR9UGbF0lygf-72">
          <mxGeometry x="10" y="8" width="250" height="88" as="geometry" />
        </mxCell>
        <mxCell id="VHbMXaNaFR9UGbF0lygf-74" value="Adicionar Nota" style="rounded=0;whiteSpace=wrap;html=1;" vertex="1" parent="VHbMXaNaFR9UGbF0lygf-72">
          <mxGeometry x="10" y="128" width="130" height="24" as="geometry" />
        </mxCell>
        <mxCell id="VHbMXaNaFR9UGbF0lygf-75" value="Adicionar Faltas" style="rounded=0;whiteSpace=wrap;html=1;" vertex="1" parent="VHbMXaNaFR9UGbF0lygf-72">
          <mxGeometry x="160" y="128" width="130" height="24" as="geometry" />
        </mxCell>
        <mxCell id="VHbMXaNaFR9UGbF0lygf-76" value="x" style="rounded=0;whiteSpace=wrap;html=1;fillColor=#f8cecc;strokeColor=#b85450;" vertex="1" parent="VHbMXaNaFR9UGbF0lygf-72">
          <mxGeometry x="270" y="4" width="24.999999999999996" height="20" as="geometry" />
        </mxCell>
        <mxCell id="VHbMXaNaFR9UGbF0lygf-77" value="Usuário" style="rounded=0;whiteSpace=wrap;html=1;fontSize=15;" vertex="1" parent="VHbMXaNaFR9UGbF0lygf-106">
          <mxGeometry x="810" y="20" width="100" height="40" as="geometry" />
        </mxCell>
        <mxCell id="VHbMXaNaFR9UGbF0lygf-86" value="Registrar Matéria" style="rounded=0;whiteSpace=wrap;html=1;" vertex="1" parent="VHbMXaNaFR9UGbF0lygf-106">
          <mxGeometry x="600" y="20" width="180" height="40" as="geometry" />
        </mxCell>
        <mxCell id="VHbMXaNaFR9UGbF0lygf-257" style="edgeStyle=orthogonalEdgeStyle;shape=connector;rounded=0;orthogonalLoop=1;jettySize=auto;html=1;exitX=0;exitY=0.5;exitDx=0;exitDy=0;strokeColor=default;strokeWidth=5;align=center;verticalAlign=middle;fontFamily=Helvetica;fontSize=11;fontColor=default;labelBackgroundColor=default;endArrow=none;startArrow=none;startFill=0;endFill=0;" edge="1" parent="VHbMXaNaFR9UGbF0lygf-106" source="VHbMXaNaFR9UGbF0lygf-87">
          <mxGeometry relative="1" as="geometry">
            <mxPoint x="-40" y="40" as="targetPoint" />
          </mxGeometry>
        </mxCell>
        <mxCell id="VHbMXaNaFR9UGbF0lygf-87" value="Dashboard Principal" style="rounded=0;whiteSpace=wrap;html=1;" vertex="1" parent="VHbMXaNaFR9UGbF0lygf-106">
          <mxGeometry x="30" y="100" width="200" height="60" as="geometry" />
        </mxCell>
        <mxCell id="VHbMXaNaFR9UGbF0lygf-256" style="edgeStyle=orthogonalEdgeStyle;shape=connector;rounded=0;orthogonalLoop=1;jettySize=auto;html=1;exitX=0;exitY=0.5;exitDx=0;exitDy=0;entryX=0.141;entryY=0.002;entryDx=0;entryDy=0;entryPerimeter=0;strokeColor=default;strokeWidth=5;align=center;verticalAlign=middle;fontFamily=Helvetica;fontSize=11;fontColor=default;labelBackgroundColor=default;endArrow=classic;" edge="1" parent="VHbMXaNaFR9UGbF0lygf-106" source="VHbMXaNaFR9UGbF0lygf-47" target="VHbMXaNaFR9UGbF0lygf-85">
          <mxGeometry relative="1" as="geometry">
            <Array as="points">
              <mxPoint x="-40" y="45" />
              <mxPoint x="-40" y="-50" />
              <mxPoint x="133" y="-50" />
            </Array>
          </mxGeometry>
        </mxCell>
        <mxCell id="VHbMXaNaFR9UGbF0lygf-107" value="" style="group" vertex="1" connectable="0" parent="1">
          <mxGeometry x="1090" y="40" width="940" height="580" as="geometry" />
        </mxCell>
        <mxCell id="VHbMXaNaFR9UGbF0lygf-108" value="" style="rounded=0;whiteSpace=wrap;html=1;" vertex="1" parent="VHbMXaNaFR9UGbF0lygf-107">
          <mxGeometry width="940" height="580" as="geometry" />
        </mxCell>
        <mxCell id="VHbMXaNaFR9UGbF0lygf-109" value="Sistema" style="rounded=0;whiteSpace=wrap;html=1;fontSize=16;" vertex="1" parent="VHbMXaNaFR9UGbF0lygf-107">
          <mxGeometry x="40" y="20" width="180" height="50" as="geometry" />
        </mxCell>
        <mxCell id="VHbMXaNaFR9UGbF0lygf-110" value="Calcular IEA" style="rounded=0;whiteSpace=wrap;html=1;" vertex="1" parent="VHbMXaNaFR9UGbF0lygf-107">
          <mxGeometry x="30" y="180" width="200" height="60" as="geometry" />
        </mxCell>
        <mxCell id="VHbMXaNaFR9UGbF0lygf-111" value="Gerenciar Semestres" style="rounded=0;whiteSpace=wrap;html=1;" vertex="1" parent="VHbMXaNaFR9UGbF0lygf-107">
          <mxGeometry x="35" y="510" width="190" height="50" as="geometry" />
        </mxCell>
        <mxCell id="VHbMXaNaFR9UGbF0lygf-112" value="" style="line;strokeWidth=1;direction=south;html=1;strokeColor=#000000;" vertex="1" parent="VHbMXaNaFR9UGbF0lygf-107">
          <mxGeometry x="250" width="10" height="580" as="geometry" />
        </mxCell>
        <mxCell id="VHbMXaNaFR9UGbF0lygf-139" value="Dashboard Principal" style="rounded=0;whiteSpace=wrap;html=1;" vertex="1" parent="VHbMXaNaFR9UGbF0lygf-107">
          <mxGeometry x="30" y="100" width="200" height="60" as="geometry" />
        </mxCell>
        <mxCell id="VHbMXaNaFR9UGbF0lygf-140" value="Configurações do Usuário" style="text;html=1;strokeColor=none;fillColor=none;align=left;verticalAlign=middle;whiteSpace=wrap;rounded=0;fontSize=20;" vertex="1" parent="VHbMXaNaFR9UGbF0lygf-107">
          <mxGeometry x="280" y="20" width="310" height="30" as="geometry" />
        </mxCell>
        <mxCell id="VHbMXaNaFR9UGbF0lygf-141" value="Nome de Usuário:" style="text;html=1;strokeColor=none;fillColor=none;align=left;verticalAlign=middle;whiteSpace=wrap;rounded=0;fontSize=25;" vertex="1" parent="VHbMXaNaFR9UGbF0lygf-107">
          <mxGeometry x="280" y="100" width="242.51497005988023" height="39.99999999999999" as="geometry" />
        </mxCell>
        <mxCell id="VHbMXaNaFR9UGbF0lygf-142" value="Nome do Curso:" style="text;html=1;strokeColor=none;fillColor=none;align=left;verticalAlign=middle;whiteSpace=wrap;rounded=0;fontSize=25;" vertex="1" parent="VHbMXaNaFR9UGbF0lygf-107">
          <mxGeometry x="280" y="180" width="242.51497005988023" height="39.99999999999999" as="geometry" />
        </mxCell>
        <mxCell id="VHbMXaNaFR9UGbF0lygf-143" value="Carga Horária do Curso:" style="text;html=1;strokeColor=none;fillColor=none;align=left;verticalAlign=middle;whiteSpace=wrap;rounded=0;fontSize=25;" vertex="1" parent="VHbMXaNaFR9UGbF0lygf-107">
          <mxGeometry x="280" y="260" width="339.5209580838323" height="39.99999999999999" as="geometry" />
        </mxCell>
        <mxCell id="VHbMXaNaFR9UGbF0lygf-144" value="Qntd. Total de Semestres:" style="text;html=1;strokeColor=none;fillColor=none;align=left;verticalAlign=middle;whiteSpace=wrap;rounded=0;fontSize=25;" vertex="1" parent="VHbMXaNaFR9UGbF0lygf-107">
          <mxGeometry x="280" y="340" width="436.52694610778445" height="39.99999999999999" as="geometry" />
        </mxCell>
        <mxCell id="VHbMXaNaFR9UGbF0lygf-145" value="Caixa de Texto" style="rounded=0;whiteSpace=wrap;html=1;" vertex="1" parent="VHbMXaNaFR9UGbF0lygf-107">
          <mxGeometry x="490.0049700598802" y="100" width="194.01197604790417" height="39.99999999999999" as="geometry" />
        </mxCell>
        <mxCell id="VHbMXaNaFR9UGbF0lygf-146" value="Caixa de Texto" style="rounded=0;whiteSpace=wrap;html=1;" vertex="1" parent="VHbMXaNaFR9UGbF0lygf-107">
          <mxGeometry x="469.99730538922154" y="180" width="194.01197604790417" height="39.99999999999999" as="geometry" />
        </mxCell>
        <mxCell id="VHbMXaNaFR9UGbF0lygf-147" value="Caixa de Texto" style="rounded=0;whiteSpace=wrap;html=1;" vertex="1" parent="VHbMXaNaFR9UGbF0lygf-107">
          <mxGeometry x="559.9968263473053" y="260" width="194.01197604790417" height="39.99999999999999" as="geometry" />
        </mxCell>
        <mxCell id="VHbMXaNaFR9UGbF0lygf-148" value="Caixa de Texto" style="rounded=0;whiteSpace=wrap;html=1;" vertex="1" parent="VHbMXaNaFR9UGbF0lygf-107">
          <mxGeometry x="575.9980239520958" y="340" width="194.01197604790417" height="39.99999999999999" as="geometry" />
        </mxCell>
        <mxCell id="VHbMXaNaFR9UGbF0lygf-168" value="Salvar" style="rounded=0;whiteSpace=wrap;html=1;fontSize=15;fillColor=#d5e8d4;strokeColor=#82b366;" vertex="1" parent="VHbMXaNaFR9UGbF0lygf-107">
          <mxGeometry x="716.53" y="500" width="200" height="60" as="geometry" />
        </mxCell>
        <mxCell id="VHbMXaNaFR9UGbF0lygf-169" style="edgeStyle=orthogonalEdgeStyle;rounded=0;orthogonalLoop=1;jettySize=auto;html=1;exitX=1;exitY=0.5;exitDx=0;exitDy=0;entryX=0;entryY=0.069;entryDx=0;entryDy=0;entryPerimeter=0;strokeWidth=5;" edge="1" parent="1" source="VHbMXaNaFR9UGbF0lygf-77" target="VHbMXaNaFR9UGbF0lygf-108">
          <mxGeometry relative="1" as="geometry" />
        </mxCell>
        <mxCell id="VHbMXaNaFR9UGbF0lygf-170" value="" style="group" vertex="1" connectable="0" parent="1">
          <mxGeometry x="-1020" y="40" width="940" height="590" as="geometry" />
        </mxCell>
        <mxCell id="VHbMXaNaFR9UGbF0lygf-171" value="" style="rounded=0;whiteSpace=wrap;html=1;" vertex="1" parent="VHbMXaNaFR9UGbF0lygf-170">
          <mxGeometry width="940" height="580" as="geometry" />
        </mxCell>
        <mxCell id="VHbMXaNaFR9UGbF0lygf-172" value="Sistema" style="rounded=0;whiteSpace=wrap;html=1;fontSize=16;" vertex="1" parent="VHbMXaNaFR9UGbF0lygf-170">
          <mxGeometry x="40" y="20" width="180" height="50" as="geometry" />
        </mxCell>
        <mxCell id="VHbMXaNaFR9UGbF0lygf-173" value="Calcular IEA" style="rounded=0;whiteSpace=wrap;html=1;" vertex="1" parent="VHbMXaNaFR9UGbF0lygf-170">
          <mxGeometry x="30" y="184" width="200" height="60" as="geometry" />
        </mxCell>
        <mxCell id="VHbMXaNaFR9UGbF0lygf-174" value="Gerenciar Semestres" style="rounded=0;whiteSpace=wrap;html=1;" vertex="1" parent="VHbMXaNaFR9UGbF0lygf-170">
          <mxGeometry x="35" y="510" width="190" height="50" as="geometry" />
        </mxCell>
        <mxCell id="VHbMXaNaFR9UGbF0lygf-175" value="" style="line;strokeWidth=1;direction=south;html=1;strokeColor=#000000;" vertex="1" parent="VHbMXaNaFR9UGbF0lygf-170">
          <mxGeometry x="250" width="10" height="580" as="geometry" />
        </mxCell>
        <mxCell id="VHbMXaNaFR9UGbF0lygf-176" value="Xº Semestre" style="rounded=0;whiteSpace=wrap;html=1;" vertex="1" parent="VHbMXaNaFR9UGbF0lygf-170">
          <mxGeometry x="280" y="20" width="130" height="30" as="geometry" />
        </mxCell>
        <mxCell id="VHbMXaNaFR9UGbF0lygf-177" value="Registrar Matéria" style="text;html=1;strokeColor=none;fillColor=none;align=left;verticalAlign=middle;whiteSpace=wrap;rounded=0;fontSize=20;" vertex="1" parent="VHbMXaNaFR9UGbF0lygf-170">
          <mxGeometry x="280" y="70" width="190" height="30" as="geometry" />
        </mxCell>
        <mxCell id="VHbMXaNaFR9UGbF0lygf-178" value="lista suspensa" style="text;html=1;strokeColor=none;fillColor=none;align=left;verticalAlign=middle;whiteSpace=wrap;rounded=0;" vertex="1" parent="VHbMXaNaFR9UGbF0lygf-170">
          <mxGeometry x="450" y="20" width="100" height="30" as="geometry" />
        </mxCell>
        <mxCell id="VHbMXaNaFR9UGbF0lygf-179" value="" style="endArrow=classic;html=1;rounded=0;" edge="1" parent="VHbMXaNaFR9UGbF0lygf-170">
          <mxGeometry width="50" height="50" relative="1" as="geometry">
            <mxPoint x="410" y="34.5" as="sourcePoint" />
            <mxPoint x="450" y="34.5" as="targetPoint" />
          </mxGeometry>
        </mxCell>
        <mxCell id="VHbMXaNaFR9UGbF0lygf-200" value="Usuário" style="rounded=0;whiteSpace=wrap;html=1;fontSize=15;" vertex="1" parent="VHbMXaNaFR9UGbF0lygf-170">
          <mxGeometry x="810" y="20" width="100" height="40" as="geometry" />
        </mxCell>
        <mxCell id="VHbMXaNaFR9UGbF0lygf-202" value="Dashboard Principal" style="rounded=0;whiteSpace=wrap;html=1;" vertex="1" parent="VHbMXaNaFR9UGbF0lygf-170">
          <mxGeometry x="30" y="100" width="200" height="60" as="geometry" />
        </mxCell>
        <mxCell id="VHbMXaNaFR9UGbF0lygf-212" value="Nome Da Matéria:" style="text;html=1;strokeColor=none;fillColor=none;align=left;verticalAlign=middle;whiteSpace=wrap;rounded=0;fontSize=25;" vertex="1" parent="VHbMXaNaFR9UGbF0lygf-170">
          <mxGeometry x="300" y="125" width="242.51497005988023" height="39.99999999999999" as="geometry" />
        </mxCell>
        <mxCell id="VHbMXaNaFR9UGbF0lygf-213" value="Carga Horária Total:" style="text;html=1;strokeColor=none;fillColor=none;align=left;verticalAlign=middle;whiteSpace=wrap;rounded=0;fontSize=25;" vertex="1" parent="VHbMXaNaFR9UGbF0lygf-170">
          <mxGeometry x="300" y="185" width="242.51497005988023" height="39.99999999999999" as="geometry" />
        </mxCell>
        <mxCell id="VHbMXaNaFR9UGbF0lygf-214" value="Limite de Faltas (porcentagem):" style="text;html=1;strokeColor=none;fillColor=none;align=left;verticalAlign=middle;whiteSpace=wrap;rounded=0;fontSize=25;" vertex="1" parent="VHbMXaNaFR9UGbF0lygf-170">
          <mxGeometry x="300" y="245" width="390" height="40" as="geometry" />
        </mxCell>
        <mxCell id="VHbMXaNaFR9UGbF0lygf-215" value="Quantidade de Provas:" style="text;html=1;strokeColor=none;fillColor=none;align=left;verticalAlign=middle;whiteSpace=wrap;rounded=0;fontSize=25;" vertex="1" parent="VHbMXaNaFR9UGbF0lygf-170">
          <mxGeometry x="300" y="309" width="436.52694610778445" height="39.99999999999999" as="geometry" />
        </mxCell>
        <mxCell id="VHbMXaNaFR9UGbF0lygf-216" value="Caixa de Texto" style="rounded=0;whiteSpace=wrap;html=1;" vertex="1" parent="VHbMXaNaFR9UGbF0lygf-170">
          <mxGeometry x="510.0049700598802" y="125" width="194.01197604790417" height="39.99999999999999" as="geometry" />
        </mxCell>
        <mxCell id="VHbMXaNaFR9UGbF0lygf-217" value="Caixa de Texto" style="rounded=0;whiteSpace=wrap;html=1;" vertex="1" parent="VHbMXaNaFR9UGbF0lygf-170">
          <mxGeometry x="529.9973053892215" y="185" width="194.01197604790417" height="39.99999999999999" as="geometry" />
        </mxCell>
        <mxCell id="VHbMXaNaFR9UGbF0lygf-218" value="Caixa de Texto" style="rounded=0;whiteSpace=wrap;html=1;" vertex="1" parent="VHbMXaNaFR9UGbF0lygf-170">
          <mxGeometry x="659.9968263473052" y="245" width="194.01197604790417" height="39.99999999999999" as="geometry" />
        </mxCell>
        <mxCell id="VHbMXaNaFR9UGbF0lygf-219" value="Caixa de Texto" style="rounded=0;whiteSpace=wrap;html=1;" vertex="1" parent="VHbMXaNaFR9UGbF0lygf-170">
          <mxGeometry x="595.9980239520958" y="309" width="194.01197604790417" height="39.99999999999999" as="geometry" />
        </mxCell>
        <mxCell id="VHbMXaNaFR9UGbF0lygf-220" value="Salvar" style="rounded=0;whiteSpace=wrap;html=1;fontSize=15;fillColor=#d5e8d4;strokeColor=#82b366;" vertex="1" parent="VHbMXaNaFR9UGbF0lygf-170">
          <mxGeometry x="710" y="500" width="200" height="60" as="geometry" />
        </mxCell>
        <mxCell id="VHbMXaNaFR9UGbF0lygf-222" value="Média da Matéria:" style="text;html=1;strokeColor=none;fillColor=none;align=left;verticalAlign=middle;whiteSpace=wrap;rounded=0;fontSize=25;" vertex="1" parent="VHbMXaNaFR9UGbF0lygf-170">
          <mxGeometry x="300" y="375" width="436.52694610778445" height="39.99999999999999" as="geometry" />
        </mxCell>
        <mxCell id="VHbMXaNaFR9UGbF0lygf-223" value="Caixa de Texto" style="rounded=0;whiteSpace=wrap;html=1;" vertex="1" parent="VHbMXaNaFR9UGbF0lygf-170">
          <mxGeometry x="515.9880239520958" y="375" width="194.01197604790417" height="39.99999999999999" as="geometry" />
        </mxCell>
        <mxCell id="VHbMXaNaFR9UGbF0lygf-224" style="edgeStyle=orthogonalEdgeStyle;shape=connector;rounded=0;orthogonalLoop=1;jettySize=auto;html=1;exitX=0.5;exitY=0;exitDx=0;exitDy=0;entryX=0.75;entryY=0;entryDx=0;entryDy=0;strokeColor=default;strokeWidth=5;align=center;verticalAlign=middle;fontFamily=Helvetica;fontSize=11;fontColor=default;labelBackgroundColor=default;endArrow=classic;" edge="1" parent="1" source="VHbMXaNaFR9UGbF0lygf-86" target="VHbMXaNaFR9UGbF0lygf-171">
          <mxGeometry relative="1" as="geometry">
            <Array as="points">
              <mxPoint x="730" y="-100" />
              <mxPoint x="-315" y="-100" />
            </Array>
          </mxGeometry>
        </mxCell>
        <mxCell id="VHbMXaNaFR9UGbF0lygf-225" style="edgeStyle=orthogonalEdgeStyle;shape=connector;rounded=0;orthogonalLoop=1;jettySize=auto;html=1;exitX=1;exitY=0.5;exitDx=0;exitDy=0;strokeColor=default;strokeWidth=5;align=center;verticalAlign=middle;fontFamily=Helvetica;fontSize=11;fontColor=default;labelBackgroundColor=default;endArrow=classic;" edge="1" parent="1" source="VHbMXaNaFR9UGbF0lygf-220">
          <mxGeometry relative="1" as="geometry">
            <mxPoint x="40" y="570" as="targetPoint" />
          </mxGeometry>
        </mxCell>
        <mxCell id="VHbMXaNaFR9UGbF0lygf-227" style="edgeStyle=orthogonalEdgeStyle;shape=connector;rounded=0;orthogonalLoop=1;jettySize=auto;html=1;exitX=0;exitY=0.5;exitDx=0;exitDy=0;entryX=0.999;entryY=0.224;entryDx=0;entryDy=0;entryPerimeter=0;strokeColor=default;strokeWidth=5;align=center;verticalAlign=middle;fontFamily=Helvetica;fontSize=11;fontColor=default;labelBackgroundColor=default;endArrow=classic;" edge="1" parent="1" source="VHbMXaNaFR9UGbF0lygf-139" target="VHbMXaNaFR9UGbF0lygf-85">
          <mxGeometry relative="1" as="geometry" />
        </mxCell>
        <mxCell id="VHbMXaNaFR9UGbF0lygf-228" value="" style="group" vertex="1" connectable="0" parent="1">
          <mxGeometry x="-1020" y="770" width="940" height="580" as="geometry" />
        </mxCell>
        <mxCell id="VHbMXaNaFR9UGbF0lygf-229" value="" style="rounded=0;whiteSpace=wrap;html=1;" vertex="1" parent="VHbMXaNaFR9UGbF0lygf-228">
          <mxGeometry width="940" height="580" as="geometry" />
        </mxCell>
        <mxCell id="VHbMXaNaFR9UGbF0lygf-230" value="Sistema" style="rounded=0;whiteSpace=wrap;html=1;fontSize=16;" vertex="1" parent="VHbMXaNaFR9UGbF0lygf-228">
          <mxGeometry x="40" y="20" width="180" height="50" as="geometry" />
        </mxCell>
        <mxCell id="VHbMXaNaFR9UGbF0lygf-231" value="Calcular IEA" style="rounded=0;whiteSpace=wrap;html=1;" vertex="1" parent="VHbMXaNaFR9UGbF0lygf-228">
          <mxGeometry x="30" y="180" width="200" height="60" as="geometry" />
        </mxCell>
        <mxCell id="VHbMXaNaFR9UGbF0lygf-232" value="Gerenciar Semestres" style="rounded=0;whiteSpace=wrap;html=1;" vertex="1" parent="VHbMXaNaFR9UGbF0lygf-228">
          <mxGeometry x="35" y="510" width="190" height="50" as="geometry" />
        </mxCell>
        <mxCell id="VHbMXaNaFR9UGbF0lygf-233" value="" style="line;strokeWidth=1;direction=south;html=1;strokeColor=#000000;" vertex="1" parent="VHbMXaNaFR9UGbF0lygf-228">
          <mxGeometry x="250" width="10" height="580" as="geometry" />
        </mxCell>
        <mxCell id="VHbMXaNaFR9UGbF0lygf-234" value="Dashboard Principal" style="rounded=0;whiteSpace=wrap;html=1;" vertex="1" parent="VHbMXaNaFR9UGbF0lygf-228">
          <mxGeometry x="30" y="100" width="200" height="60" as="geometry" />
        </mxCell>
        <mxCell id="VHbMXaNaFR9UGbF0lygf-235" value="Gerenciar Semestres" style="text;html=1;strokeColor=none;fillColor=none;align=left;verticalAlign=middle;whiteSpace=wrap;rounded=0;fontSize=20;" vertex="1" parent="VHbMXaNaFR9UGbF0lygf-228">
          <mxGeometry x="280" y="20" width="310" height="30" as="geometry" />
        </mxCell>
        <mxCell id="VHbMXaNaFR9UGbF0lygf-244" value="Salvar" style="rounded=0;whiteSpace=wrap;html=1;fontSize=15;fillColor=#d5e8d4;strokeColor=#82b366;" vertex="1" parent="VHbMXaNaFR9UGbF0lygf-228">
          <mxGeometry x="716.53" y="500" width="200" height="60" as="geometry" />
        </mxCell>
        <mxCell id="VHbMXaNaFR9UGbF0lygf-245" value="" style="rounded=0;whiteSpace=wrap;html=1;" vertex="1" parent="VHbMXaNaFR9UGbF0lygf-228">
          <mxGeometry x="310" y="90" width="300" height="110" as="geometry" />
        </mxCell>
        <mxCell id="VHbMXaNaFR9UGbF0lygf-246" value="&lt;div style=&quot;text-align: left;&quot;&gt;&lt;font style=&quot;font-size: 15px;&quot;&gt;&lt;b style=&quot;&quot;&gt;1º Semestre&lt;br&gt;&lt;/b&gt;&lt;br&gt;Situação: Finalizado&lt;br&gt;&lt;/font&gt;&lt;/div&gt;" style="text;html=1;strokeColor=none;fillColor=none;align=left;verticalAlign=top;whiteSpace=wrap;rounded=0;" vertex="1" parent="VHbMXaNaFR9UGbF0lygf-245">
          <mxGeometry x="10" y="5.5" width="250" height="60.5" as="geometry" />
        </mxCell>
        <mxCell id="VHbMXaNaFR9UGbF0lygf-248" value="Finalizar" style="rounded=0;whiteSpace=wrap;html=1;fillColor=#bac8d3;strokeColor=#23445d;" vertex="1" parent="VHbMXaNaFR9UGbF0lygf-245">
          <mxGeometry x="160" y="76.15384615384615" width="130" height="28.346153846153847" as="geometry" />
        </mxCell>
        <mxCell id="VHbMXaNaFR9UGbF0lygf-249" value="x" style="rounded=0;whiteSpace=wrap;html=1;fillColor=#f8cecc;strokeColor=#b85450;" vertex="1" parent="VHbMXaNaFR9UGbF0lygf-245">
          <mxGeometry x="260" y="2.75" width="35" height="22.634615384615383" as="geometry" />
        </mxCell>
        <mxCell id="VHbMXaNaFR9UGbF0lygf-250" value="" style="rounded=0;whiteSpace=wrap;html=1;" vertex="1" parent="VHbMXaNaFR9UGbF0lygf-228">
          <mxGeometry x="310" y="235" width="300" height="110" as="geometry" />
        </mxCell>
        <mxCell id="VHbMXaNaFR9UGbF0lygf-251" value="&lt;div style=&quot;text-align: left;&quot;&gt;&lt;font style=&quot;font-size: 15px;&quot;&gt;&lt;b style=&quot;&quot;&gt;2º Semestre&lt;br&gt;&lt;/b&gt;&lt;br&gt;Situação: Em Andamento&lt;br&gt;&lt;/font&gt;&lt;/div&gt;" style="text;html=1;strokeColor=none;fillColor=none;align=left;verticalAlign=top;whiteSpace=wrap;rounded=0;" vertex="1" parent="VHbMXaNaFR9UGbF0lygf-250">
          <mxGeometry x="10" y="5.5" width="250" height="60.5" as="geometry" />
        </mxCell>
        <mxCell id="VHbMXaNaFR9UGbF0lygf-252" value="Finalizar" style="rounded=0;whiteSpace=wrap;html=1;fillColor=#ffe6cc;strokeColor=#d79b00;" vertex="1" parent="VHbMXaNaFR9UGbF0lygf-250">
          <mxGeometry x="160" y="76.15384615384615" width="130" height="28.346153846153847" as="geometry" />
        </mxCell>
        <mxCell id="VHbMXaNaFR9UGbF0lygf-253" value="x" style="rounded=0;whiteSpace=wrap;html=1;fillColor=#f8cecc;strokeColor=#b85450;" vertex="1" parent="VHbMXaNaFR9UGbF0lygf-250">
          <mxGeometry x="260" y="2.75" width="35" height="22.634615384615383" as="geometry" />
        </mxCell>
        <mxCell id="VHbMXaNaFR9UGbF0lygf-254" style="edgeStyle=orthogonalEdgeStyle;shape=connector;rounded=0;orthogonalLoop=1;jettySize=auto;html=1;exitX=0.5;exitY=1;exitDx=0;exitDy=0;entryX=0.5;entryY=0;entryDx=0;entryDy=0;strokeColor=default;strokeWidth=5;align=center;verticalAlign=middle;fontFamily=Helvetica;fontSize=11;fontColor=default;labelBackgroundColor=default;endArrow=classic;" edge="1" parent="1" source="VHbMXaNaFR9UGbF0lygf-51" target="VHbMXaNaFR9UGbF0lygf-229">
          <mxGeometry relative="1" as="geometry" />
        </mxCell>
        <mxCell id="VHbMXaNaFR9UGbF0lygf-255" style="edgeStyle=orthogonalEdgeStyle;shape=connector;rounded=0;orthogonalLoop=1;jettySize=auto;html=1;exitX=1;exitY=0.5;exitDx=0;exitDy=0;entryX=0.25;entryY=1;entryDx=0;entryDy=0;strokeColor=default;strokeWidth=5;align=center;verticalAlign=middle;fontFamily=Helvetica;fontSize=11;fontColor=default;labelBackgroundColor=default;endArrow=classic;" edge="1" parent="1" source="VHbMXaNaFR9UGbF0lygf-244" target="VHbMXaNaFR9UGbF0lygf-85">
          <mxGeometry relative="1" as="geometry" />
        </mxCell>
        <mxCell id="VHbMXaNaFR9UGbF0lygf-258" value="Nova Janela" style="text;html=1;strokeColor=none;fillColor=none;align=left;verticalAlign=middle;whiteSpace=wrap;rounded=0;fontSize=17;" vertex="1" parent="1">
          <mxGeometry x="460" y="720" width="100" height="30" as="geometry" />
        </mxCell>
        <mxCell id="VHbMXaNaFR9UGbF0lygf-259" value="" style="rounded=0;whiteSpace=wrap;html=1;" vertex="1" parent="1">
          <mxGeometry x="460" y="750" width="260" height="170" as="geometry" />
        </mxCell>
        <mxCell id="VHbMXaNaFR9UGbF0lygf-260" value="Calcular IEA" style="text;html=1;strokeColor=none;fillColor=none;align=left;verticalAlign=middle;whiteSpace=wrap;rounded=0;fontSize=19;fontStyle=1" vertex="1" parent="VHbMXaNaFR9UGbF0lygf-259">
          <mxGeometry x="8.93" y="9.443499999999998" width="121.07" height="28.330499999999997" as="geometry" />
        </mxCell>
        <mxCell id="VHbMXaNaFR9UGbF0lygf-282" value="Média das Disciplinas aprovadas = A" style="text;html=1;strokeColor=none;fillColor=none;align=left;verticalAlign=middle;whiteSpace=wrap;rounded=0;fontSize=14;" vertex="1" parent="VHbMXaNaFR9UGbF0lygf-259">
          <mxGeometry x="10" y="40.00333333333333" width="240" height="34" as="geometry" />
        </mxCell>
        <mxCell id="VHbMXaNaFR9UGbF0lygf-283" value="IECH = B" style="text;html=1;strokeColor=none;fillColor=none;align=left;verticalAlign=middle;whiteSpace=wrap;rounded=0;fontSize=14;" vertex="1" parent="VHbMXaNaFR9UGbF0lygf-259">
          <mxGeometry x="10" y="62.67" width="250" height="34" as="geometry" />
        </mxCell>
        <mxCell id="VHbMXaNaFR9UGbF0lygf-284" value="IEPL = C" style="text;html=1;strokeColor=none;fillColor=none;align=left;verticalAlign=middle;whiteSpace=wrap;rounded=0;fontSize=14;" vertex="1" parent="VHbMXaNaFR9UGbF0lygf-259">
          <mxGeometry x="10" y="85.34233333333334" width="240" height="34" as="geometry" />
        </mxCell>
        <mxCell id="VHbMXaNaFR9UGbF0lygf-285" value="IEA = D" style="text;html=1;strokeColor=none;fillColor=none;align=left;verticalAlign=middle;whiteSpace=wrap;rounded=0;fontSize=14;" vertex="1" parent="VHbMXaNaFR9UGbF0lygf-259">
          <mxGeometry x="10" y="110.83949999999999" width="240" height="34" as="geometry" />
        </mxCell>
        <mxCell id="VHbMXaNaFR9UGbF0lygf-264" value="" style="rounded=0;whiteSpace=wrap;html=1;" vertex="1" parent="1">
          <mxGeometry x="760" y="750" width="340" height="150" as="geometry" />
        </mxCell>
        <mxCell id="VHbMXaNaFR9UGbF0lygf-265" value="Adicionar Nota para Matéria X" style="text;html=1;strokeColor=none;fillColor=none;align=left;verticalAlign=middle;whiteSpace=wrap;rounded=0;fontSize=19;fontStyle=1" vertex="1" parent="VHbMXaNaFR9UGbF0lygf-264">
          <mxGeometry x="10" y="10" width="280" height="30" as="geometry" />
        </mxCell>
        <mxCell id="VHbMXaNaFR9UGbF0lygf-266" value="Nota:" style="text;html=1;strokeColor=none;fillColor=none;align=left;verticalAlign=middle;whiteSpace=wrap;rounded=0;fontSize=17;" vertex="1" parent="VHbMXaNaFR9UGbF0lygf-264">
          <mxGeometry x="20" y="50" width="50" height="30" as="geometry" />
        </mxCell>
        <mxCell id="VHbMXaNaFR9UGbF0lygf-267" value="Caixa de Texto" style="rounded=0;whiteSpace=wrap;html=1;" vertex="1" parent="VHbMXaNaFR9UGbF0lygf-264">
          <mxGeometry x="70" y="50" width="120" height="30" as="geometry" />
        </mxCell>
        <mxCell id="VHbMXaNaFR9UGbF0lygf-291" value="Peso de Nota:" style="text;html=1;strokeColor=none;fillColor=none;align=left;verticalAlign=middle;whiteSpace=wrap;rounded=0;fontSize=17;" vertex="1" parent="VHbMXaNaFR9UGbF0lygf-264">
          <mxGeometry x="20" y="90" width="130" height="30" as="geometry" />
        </mxCell>
        <mxCell id="VHbMXaNaFR9UGbF0lygf-292" value="Caixa de Texto" style="rounded=0;whiteSpace=wrap;html=1;" vertex="1" parent="VHbMXaNaFR9UGbF0lygf-264">
          <mxGeometry x="138" y="90" width="120" height="30" as="geometry" />
        </mxCell>
        <mxCell id="VHbMXaNaFR9UGbF0lygf-271" value="" style="rounded=0;whiteSpace=wrap;html=1;" vertex="1" parent="1">
          <mxGeometry x="1150" y="750" width="320" height="100" as="geometry" />
        </mxCell>
        <mxCell id="VHbMXaNaFR9UGbF0lygf-272" value="Adicionar Falta para Matéria X" style="text;html=1;strokeColor=none;fillColor=none;align=left;verticalAlign=middle;whiteSpace=wrap;rounded=0;fontSize=19;fontStyle=1" vertex="1" parent="VHbMXaNaFR9UGbF0lygf-271">
          <mxGeometry x="10" y="10" width="280" height="30" as="geometry" />
        </mxCell>
        <mxCell id="VHbMXaNaFR9UGbF0lygf-273" value="&lt;font style=&quot;font-size: 17px;&quot;&gt;Faltas:&lt;/font&gt;" style="text;html=1;strokeColor=none;fillColor=none;align=left;verticalAlign=middle;whiteSpace=wrap;rounded=0;" vertex="1" parent="VHbMXaNaFR9UGbF0lygf-271">
          <mxGeometry x="10" y="50" width="60" height="30" as="geometry" />
        </mxCell>
        <mxCell id="VHbMXaNaFR9UGbF0lygf-274" value="Caixa de Texto" style="rounded=0;whiteSpace=wrap;html=1;" vertex="1" parent="VHbMXaNaFR9UGbF0lygf-271">
          <mxGeometry x="67" y="50" width="120" height="30" as="geometry" />
        </mxCell>
        <mxCell id="VHbMXaNaFR9UGbF0lygf-279" style="edgeStyle=orthogonalEdgeStyle;shape=connector;rounded=0;orthogonalLoop=1;jettySize=auto;html=1;exitX=0.5;exitY=1;exitDx=0;exitDy=0;strokeColor=default;strokeWidth=5;align=center;verticalAlign=middle;fontFamily=Helvetica;fontSize=11;fontColor=default;labelBackgroundColor=default;endArrow=classic;entryX=0.5;entryY=0;entryDx=0;entryDy=0;" edge="1" parent="1" source="VHbMXaNaFR9UGbF0lygf-50" target="VHbMXaNaFR9UGbF0lygf-259">
          <mxGeometry relative="1" as="geometry">
            <mxPoint x="780" y="710" as="targetPoint" />
            <Array as="points">
              <mxPoint x="170" y="530" />
              <mxPoint x="310" y="530" />
              <mxPoint x="310" y="710" />
              <mxPoint x="590" y="710" />
            </Array>
          </mxGeometry>
        </mxCell>
        <mxCell id="VHbMXaNaFR9UGbF0lygf-287" value="Nova Janela" style="text;html=1;strokeColor=none;fillColor=none;align=left;verticalAlign=middle;whiteSpace=wrap;rounded=0;fontSize=17;" vertex="1" parent="1">
          <mxGeometry x="760" y="720" width="100" height="30" as="geometry" />
        </mxCell>
        <mxCell id="VHbMXaNaFR9UGbF0lygf-288" value="Nova Janela" style="text;html=1;strokeColor=none;fillColor=none;align=left;verticalAlign=middle;whiteSpace=wrap;rounded=0;fontSize=17;" vertex="1" parent="1">
          <mxGeometry x="1150" y="720" width="100" height="30" as="geometry" />
        </mxCell>
        <mxCell id="VHbMXaNaFR9UGbF0lygf-289" style="edgeStyle=orthogonalEdgeStyle;shape=connector;rounded=0;orthogonalLoop=1;jettySize=auto;html=1;exitX=0.5;exitY=1;exitDx=0;exitDy=0;entryX=0.5;entryY=0;entryDx=0;entryDy=0;strokeColor=default;strokeWidth=5;align=center;verticalAlign=middle;fontFamily=Helvetica;fontSize=11;fontColor=default;labelBackgroundColor=default;endArrow=classic;" edge="1" parent="1" source="VHbMXaNaFR9UGbF0lygf-75" target="VHbMXaNaFR9UGbF0lygf-271">
          <mxGeometry relative="1" as="geometry" />
        </mxCell>
        <mxCell id="VHbMXaNaFR9UGbF0lygf-290" style="edgeStyle=orthogonalEdgeStyle;shape=connector;rounded=0;orthogonalLoop=1;jettySize=auto;html=1;exitX=0.5;exitY=1;exitDx=0;exitDy=0;entryX=0.5;entryY=0;entryDx=0;entryDy=0;strokeColor=default;strokeWidth=5;align=center;verticalAlign=middle;fontFamily=Helvetica;fontSize=11;fontColor=default;labelBackgroundColor=default;endArrow=classic;" edge="1" parent="1" source="VHbMXaNaFR9UGbF0lygf-74" target="VHbMXaNaFR9UGbF0lygf-264">
          <mxGeometry relative="1" as="geometry">
            <Array as="points">
              <mxPoint x="725" y="670" />
              <mxPoint x="930" y="670" />
            </Array>
          </mxGeometry>
        </mxCell>
      </root>
    </mxGraphModel>
  </diagram>
</mxfile>
